<mxfile host="app.diagrams.net" agent="Mozilla/5.0 (Macintosh; Intel Mac OS X 10_15_7) AppleWebKit/537.36 (KHTML, like Gecko) Chrome/139.0.0.0 Safari/537.36" version="28.1.2">
  <diagram name="第 1 页" id="E8kV8LesWUvYhldmc1S8">
    <mxGraphModel dx="971" dy="1958" grid="1" gridSize="10" guides="1" tooltips="1" connect="1" arrows="1" fold="1" page="1" pageScale="1" pageWidth="827" pageHeight="1169" math="0" shadow="0">
      <root>
        <mxCell id="0" />
        <mxCell id="1" parent="0" />
        <mxCell id="XMyTi6aym01U6IMyNRND-70" value="" style="rounded=0;whiteSpace=wrap;html=1;fillColor=#FFCC99;" parent="1" vertex="1">
          <mxGeometry x="823" y="290" width="187" height="480" as="geometry" />
        </mxCell>
        <mxCell id="XMyTi6aym01U6IMyNRND-69" value="" style="rounded=0;whiteSpace=wrap;html=1;fillColor=#FF99CC;" parent="1" vertex="1">
          <mxGeometry x="20" y="290" width="187" height="480" as="geometry" />
        </mxCell>
        <mxCell id="XMyTi6aym01U6IMyNRND-68" value="" style="rounded=0;whiteSpace=wrap;html=1;fillColor=#99FF99;" parent="1" vertex="1">
          <mxGeometry x="207" y="290" width="620" height="480" as="geometry" />
        </mxCell>
        <mxCell id="XMyTi6aym01U6IMyNRND-67" value="" style="rounded=0;whiteSpace=wrap;html=1;fillColor=#66FFFF;" parent="1" vertex="1">
          <mxGeometry x="20" y="770" width="990" height="280" as="geometry" />
        </mxCell>
        <mxCell id="XMyTi6aym01U6IMyNRND-1" value="&lt;font style=&quot;font-size: 18px;&quot;&gt;Model_Runner&lt;/font&gt;" style="rounded=1;whiteSpace=wrap;html=1;" parent="1" vertex="1">
          <mxGeometry x="35" y="530" width="140" height="80" as="geometry" />
        </mxCell>
        <mxCell id="XMyTi6aym01U6IMyNRND-2" value="&lt;font style=&quot;font-size: 18px;&quot;&gt;Tp_Worker&lt;/font&gt;" style="rounded=1;whiteSpace=wrap;html=1;" parent="1" vertex="1">
          <mxGeometry x="40" y="350" width="130" height="80" as="geometry" />
        </mxCell>
        <mxCell id="XMyTi6aym01U6IMyNRND-3" value="&lt;font style=&quot;font-size: 18px;&quot;&gt;expert_location&lt;/font&gt;&lt;div&gt;&lt;font size=&quot;3&quot;&gt;【记录逻辑专家-物理专家映射关系】&lt;/font&gt;&lt;/div&gt;" style="rounded=1;whiteSpace=wrap;html=1;" parent="1" vertex="1">
          <mxGeometry x="570" y="510" width="220" height="80" as="geometry" />
        </mxCell>
        <mxCell id="XMyTi6aym01U6IMyNRND-4" value="&lt;font style=&quot;font-size: 18px;&quot;&gt;expert_distribution&lt;/font&gt;&lt;div&gt;&lt;font size=&quot;3&quot;&gt;【统计推理过程中各专家被调用信息等】&lt;/font&gt;&lt;/div&gt;" style="rounded=1;whiteSpace=wrap;html=1;" parent="1" vertex="1">
          <mxGeometry x="520" y="380" width="220" height="80" as="geometry" />
        </mxCell>
        <mxCell id="XMyTi6aym01U6IMyNRND-8" value="" style="endArrow=classic;html=1;rounded=0;entryX=0.25;entryY=1;entryDx=0;entryDy=0;exitX=1.002;exitY=0.377;exitDx=0;exitDy=0;exitPerimeter=0;" parent="1" source="XMyTi6aym01U6IMyNRND-1" target="XMyTi6aym01U6IMyNRND-4" edge="1">
          <mxGeometry width="50" height="50" relative="1" as="geometry">
            <mxPoint x="240" y="560" as="sourcePoint" />
            <mxPoint x="430" y="570" as="targetPoint" />
          </mxGeometry>
        </mxCell>
        <mxCell id="XMyTi6aym01U6IMyNRND-9" value="&lt;font style=&quot;font-size: 14px;&quot;&gt;2. 初始化专家调用信息&lt;/font&gt;" style="edgeLabel;html=1;align=center;verticalAlign=middle;resizable=0;points=[];" parent="XMyTi6aym01U6IMyNRND-8" vertex="1" connectable="0">
          <mxGeometry x="-0.0009" y="1" relative="1" as="geometry">
            <mxPoint as="offset" />
          </mxGeometry>
        </mxCell>
        <mxCell id="XMyTi6aym01U6IMyNRND-10" value="" style="endArrow=classic;html=1;rounded=0;exitX=0.5;exitY=1;exitDx=0;exitDy=0;entryX=0.5;entryY=0;entryDx=0;entryDy=0;" parent="1" source="XMyTi6aym01U6IMyNRND-2" target="XMyTi6aym01U6IMyNRND-1" edge="1">
          <mxGeometry width="50" height="50" relative="1" as="geometry">
            <mxPoint x="280" y="800" as="sourcePoint" />
            <mxPoint x="330" y="750" as="targetPoint" />
          </mxGeometry>
        </mxCell>
        <mxCell id="XMyTi6aym01U6IMyNRND-11" value="&lt;font style=&quot;font-size: 14px;&quot;&gt;3. forward推理&lt;/font&gt;" style="edgeLabel;html=1;align=center;verticalAlign=middle;resizable=0;points=[];" parent="XMyTi6aym01U6IMyNRND-10" vertex="1" connectable="0">
          <mxGeometry x="-0.0667" y="-1" relative="1" as="geometry">
            <mxPoint as="offset" />
          </mxGeometry>
        </mxCell>
        <mxCell id="XMyTi6aym01U6IMyNRND-12" value="" style="endArrow=classic;html=1;rounded=0;exitX=1;exitY=0.25;exitDx=0;exitDy=0;entryX=0.005;entryY=0.138;entryDx=0;entryDy=0;entryPerimeter=0;" parent="1" source="XMyTi6aym01U6IMyNRND-1" target="XMyTi6aym01U6IMyNRND-4" edge="1">
          <mxGeometry width="50" height="50" relative="1" as="geometry">
            <mxPoint x="280" y="800" as="sourcePoint" />
            <mxPoint x="330" y="750" as="targetPoint" />
          </mxGeometry>
        </mxCell>
        <mxCell id="XMyTi6aym01U6IMyNRND-13" value="&lt;font style=&quot;font-size: 14px;&quot;&gt;4. 更新推理轮次&lt;/font&gt;" style="edgeLabel;html=1;align=center;verticalAlign=middle;resizable=0;points=[];" parent="XMyTi6aym01U6IMyNRND-12" vertex="1" connectable="0">
          <mxGeometry x="-0.1415" y="3" relative="1" as="geometry">
            <mxPoint as="offset" />
          </mxGeometry>
        </mxCell>
        <mxCell id="XMyTi6aym01U6IMyNRND-14" value="&lt;font style=&quot;font-size: 18px;&quot;&gt;eplb_manager&lt;/font&gt;" style="rounded=1;whiteSpace=wrap;html=1;" parent="1" vertex="1">
          <mxGeometry x="250" y="650" width="190" height="80" as="geometry" />
        </mxCell>
        <mxCell id="XMyTi6aym01U6IMyNRND-15" value="" style="endArrow=classic;html=1;rounded=0;exitX=0.75;exitY=1;exitDx=0;exitDy=0;entryX=0;entryY=0.5;entryDx=0;entryDy=0;" parent="1" source="XMyTi6aym01U6IMyNRND-1" target="XMyTi6aym01U6IMyNRND-14" edge="1">
          <mxGeometry width="50" height="50" relative="1" as="geometry">
            <mxPoint x="480" y="830" as="sourcePoint" />
            <mxPoint x="530" y="780" as="targetPoint" />
          </mxGeometry>
        </mxCell>
        <mxCell id="XMyTi6aym01U6IMyNRND-16" value="&lt;font style=&quot;font-size: 14px;&quot;&gt;15.eplb实现专家再分配&lt;/font&gt;" style="edgeLabel;html=1;align=center;verticalAlign=middle;resizable=0;points=[];" parent="XMyTi6aym01U6IMyNRND-15" vertex="1" connectable="0">
          <mxGeometry x="-0.0134" y="-2" relative="1" as="geometry">
            <mxPoint x="-18" as="offset" />
          </mxGeometry>
        </mxCell>
        <mxCell id="XMyTi6aym01U6IMyNRND-17" value="&lt;font style=&quot;font-size: 18px;&quot;&gt;deepseek_v2&lt;/font&gt;" style="rounded=1;whiteSpace=wrap;html=1;" parent="1" vertex="1">
          <mxGeometry x="105" y="800" width="135" height="80" as="geometry" />
        </mxCell>
        <mxCell id="XMyTi6aym01U6IMyNRND-19" value="" style="endArrow=classic;html=1;rounded=0;exitX=0.25;exitY=1;exitDx=0;exitDy=0;entryX=0.5;entryY=0;entryDx=0;entryDy=0;" parent="1" source="XMyTi6aym01U6IMyNRND-1" target="XMyTi6aym01U6IMyNRND-17" edge="1">
          <mxGeometry width="50" height="50" relative="1" as="geometry">
            <mxPoint x="480" y="960" as="sourcePoint" />
            <mxPoint x="530" y="910" as="targetPoint" />
          </mxGeometry>
        </mxCell>
        <mxCell id="XMyTi6aym01U6IMyNRND-20" value="&lt;font style=&quot;font-size: 14px;&quot;&gt;5.调用model forward&lt;/font&gt;" style="edgeLabel;html=1;align=center;verticalAlign=middle;resizable=0;points=[];" parent="XMyTi6aym01U6IMyNRND-19" vertex="1" connectable="0">
          <mxGeometry x="-0.0099" y="1" relative="1" as="geometry">
            <mxPoint as="offset" />
          </mxGeometry>
        </mxCell>
        <mxCell id="XMyTi6aym01U6IMyNRND-21" value="&lt;font style=&quot;font-size: 18px;&quot;&gt;moe_topk&lt;/font&gt;" style="rounded=1;whiteSpace=wrap;html=1;" parent="1" vertex="1">
          <mxGeometry x="400" y="800" width="150" height="80" as="geometry" />
        </mxCell>
        <mxCell id="XMyTi6aym01U6IMyNRND-22" value="" style="endArrow=classic;html=1;rounded=0;exitX=1;exitY=0.5;exitDx=0;exitDy=0;entryX=0;entryY=0.5;entryDx=0;entryDy=0;" parent="1" source="XMyTi6aym01U6IMyNRND-17" target="XMyTi6aym01U6IMyNRND-21" edge="1">
          <mxGeometry width="50" height="50" relative="1" as="geometry">
            <mxPoint x="480" y="1020" as="sourcePoint" />
            <mxPoint x="530" y="970" as="targetPoint" />
          </mxGeometry>
        </mxCell>
        <mxCell id="XMyTi6aym01U6IMyNRND-23" value="&lt;font style=&quot;font-size: 14px;&quot;&gt;6 moe层进行专家选择&lt;/font&gt;" style="edgeLabel;html=1;align=center;verticalAlign=middle;resizable=0;points=[];" parent="XMyTi6aym01U6IMyNRND-22" vertex="1" connectable="0">
          <mxGeometry x="0.0154" relative="1" as="geometry">
            <mxPoint as="offset" />
          </mxGeometry>
        </mxCell>
        <mxCell id="XMyTi6aym01U6IMyNRND-24" value="&lt;font style=&quot;font-size: 18px;&quot;&gt;expert_location_dispatch&lt;/font&gt;" style="rounded=1;whiteSpace=wrap;html=1;" parent="1" vertex="1">
          <mxGeometry x="570" y="660" width="220" height="80" as="geometry" />
        </mxCell>
        <mxCell id="XMyTi6aym01U6IMyNRND-25" value="" style="endArrow=classic;html=1;rounded=0;exitX=1;exitY=0.5;exitDx=0;exitDy=0;entryX=0.5;entryY=1;entryDx=0;entryDy=0;" parent="1" source="XMyTi6aym01U6IMyNRND-21" target="XMyTi6aym01U6IMyNRND-24" edge="1">
          <mxGeometry width="50" height="50" relative="1" as="geometry">
            <mxPoint x="615" y="840" as="sourcePoint" />
            <mxPoint x="665" y="790" as="targetPoint" />
          </mxGeometry>
        </mxCell>
        <mxCell id="XMyTi6aym01U6IMyNRND-26" value="&lt;font style=&quot;font-size: 14px;&quot;&gt;7 返回物理专家信息&lt;/font&gt;" style="edgeLabel;html=1;align=center;verticalAlign=middle;resizable=0;points=[];" parent="XMyTi6aym01U6IMyNRND-25" vertex="1" connectable="0">
          <mxGeometry x="0.05" y="-1" relative="1" as="geometry">
            <mxPoint as="offset" />
          </mxGeometry>
        </mxCell>
        <mxCell id="XMyTi6aym01U6IMyNRND-27" value="" style="endArrow=classic;html=1;rounded=0;exitX=0.5;exitY=0;exitDx=0;exitDy=0;entryX=0.5;entryY=1;entryDx=0;entryDy=0;" parent="1" source="XMyTi6aym01U6IMyNRND-24" target="XMyTi6aym01U6IMyNRND-3" edge="1">
          <mxGeometry width="50" height="50" relative="1" as="geometry">
            <mxPoint x="720" y="650" as="sourcePoint" />
            <mxPoint x="770" y="600" as="targetPoint" />
          </mxGeometry>
        </mxCell>
        <mxCell id="XMyTi6aym01U6IMyNRND-28" value="&lt;font style=&quot;font-size: 14px;&quot;&gt;8 返回物理专家信息&lt;/font&gt;" style="edgeLabel;html=1;align=center;verticalAlign=middle;resizable=0;points=[];" parent="XMyTi6aym01U6IMyNRND-27" vertex="1" connectable="0">
          <mxGeometry x="-0.08" y="1" relative="1" as="geometry">
            <mxPoint as="offset" />
          </mxGeometry>
        </mxCell>
        <mxCell id="XMyTi6aym01U6IMyNRND-29" value="" style="endArrow=classic;html=1;rounded=0;exitX=0.25;exitY=0;exitDx=0;exitDy=0;entryX=0.25;entryY=1;entryDx=0;entryDy=0;" parent="1" source="XMyTi6aym01U6IMyNRND-21" target="XMyTi6aym01U6IMyNRND-4" edge="1">
          <mxGeometry width="50" height="50" relative="1" as="geometry">
            <mxPoint x="480" y="770" as="sourcePoint" />
            <mxPoint x="530" y="720" as="targetPoint" />
          </mxGeometry>
        </mxCell>
        <mxCell id="XMyTi6aym01U6IMyNRND-30" value="9&amp;nbsp; 调用专家信息记录" style="edgeLabel;html=1;align=center;verticalAlign=middle;resizable=0;points=[];" parent="XMyTi6aym01U6IMyNRND-29" vertex="1" connectable="0">
          <mxGeometry x="-0.115" relative="1" as="geometry">
            <mxPoint x="-15" y="96" as="offset" />
          </mxGeometry>
        </mxCell>
        <mxCell id="XMyTi6aym01U6IMyNRND-31" value="&lt;font style=&quot;font-size: 18px;&quot;&gt;moe_layer&lt;/font&gt;" style="rounded=1;whiteSpace=wrap;html=1;" parent="1" vertex="1">
          <mxGeometry x="260" y="940" width="150" height="80" as="geometry" />
        </mxCell>
        <mxCell id="XMyTi6aym01U6IMyNRND-32" value="" style="endArrow=classic;html=1;rounded=0;exitX=1;exitY=0.75;exitDx=0;exitDy=0;entryX=0.25;entryY=0;entryDx=0;entryDy=0;" parent="1" source="XMyTi6aym01U6IMyNRND-17" target="XMyTi6aym01U6IMyNRND-31" edge="1">
          <mxGeometry width="50" height="50" relative="1" as="geometry">
            <mxPoint x="480" y="1210" as="sourcePoint" />
            <mxPoint x="530" y="1160" as="targetPoint" />
          </mxGeometry>
        </mxCell>
        <mxCell id="XMyTi6aym01U6IMyNRND-33" value="&lt;font style=&quot;font-size: 14px;&quot;&gt;10. 调用moe层进行推理&lt;/font&gt;" style="edgeLabel;html=1;align=center;verticalAlign=middle;resizable=0;points=[];" parent="XMyTi6aym01U6IMyNRND-32" vertex="1" connectable="0">
          <mxGeometry x="0.0154" y="1" relative="1" as="geometry">
            <mxPoint as="offset" />
          </mxGeometry>
        </mxCell>
        <mxCell id="XMyTi6aym01U6IMyNRND-36" value="&lt;font style=&quot;font-size: 18px;&quot;&gt;two_batch_overlap&lt;/font&gt;" style="rounded=1;whiteSpace=wrap;html=1;" parent="1" vertex="1">
          <mxGeometry x="520" y="940" width="150" height="80" as="geometry" />
        </mxCell>
        <mxCell id="XMyTi6aym01U6IMyNRND-37" value="" style="endArrow=classic;html=1;rounded=0;exitX=1;exitY=0.5;exitDx=0;exitDy=0;entryX=0;entryY=0.5;entryDx=0;entryDy=0;" parent="1" source="XMyTi6aym01U6IMyNRND-31" target="XMyTi6aym01U6IMyNRND-36" edge="1">
          <mxGeometry width="50" height="50" relative="1" as="geometry">
            <mxPoint x="480" y="1210" as="sourcePoint" />
            <mxPoint x="530" y="1160" as="targetPoint" />
          </mxGeometry>
        </mxCell>
        <mxCell id="XMyTi6aym01U6IMyNRND-38" value="&lt;font style=&quot;font-size: 14px;&quot;&gt;11.tbo调用&lt;/font&gt;" style="edgeLabel;html=1;align=center;verticalAlign=middle;resizable=0;points=[];" parent="XMyTi6aym01U6IMyNRND-37" vertex="1" connectable="0">
          <mxGeometry x="0.1077" y="-1" relative="1" as="geometry">
            <mxPoint x="-10" y="-1" as="offset" />
          </mxGeometry>
        </mxCell>
        <mxCell id="XMyTi6aym01U6IMyNRND-40" value="&lt;font style=&quot;font-size: 18px;&quot;&gt;deepep&lt;/font&gt;" style="rounded=1;whiteSpace=wrap;html=1;" parent="1" vertex="1">
          <mxGeometry x="800" y="940" width="150" height="80" as="geometry" />
        </mxCell>
        <mxCell id="XMyTi6aym01U6IMyNRND-41" value="&lt;font style=&quot;font-size: 18px;&quot;&gt;deep_ep三方库&lt;/font&gt;" style="rounded=1;whiteSpace=wrap;html=1;" parent="1" vertex="1">
          <mxGeometry x="850" y="620" width="150" height="80" as="geometry" />
        </mxCell>
        <mxCell id="XMyTi6aym01U6IMyNRND-42" value="" style="endArrow=classic;html=1;rounded=0;entryX=1;entryY=0.5;entryDx=0;entryDy=0;exitX=0.25;exitY=0;exitDx=0;exitDy=0;" parent="1" source="XMyTi6aym01U6IMyNRND-41" target="XMyTi6aym01U6IMyNRND-4" edge="1">
          <mxGeometry width="50" height="50" relative="1" as="geometry">
            <mxPoint x="940" y="740" as="sourcePoint" />
            <mxPoint x="1070" y="675" as="targetPoint" />
          </mxGeometry>
        </mxCell>
        <mxCell id="XMyTi6aym01U6IMyNRND-47" value="&lt;font style=&quot;font-size: 14px;&quot;&gt;14.deepep信息同步&lt;/font&gt;" style="edgeLabel;html=1;align=center;verticalAlign=middle;resizable=0;points=[];" parent="XMyTi6aym01U6IMyNRND-42" vertex="1" connectable="0">
          <mxGeometry x="-0.5508" y="2" relative="1" as="geometry">
            <mxPoint x="19" y="6" as="offset" />
          </mxGeometry>
        </mxCell>
        <mxCell id="XMyTi6aym01U6IMyNRND-43" value="" style="endArrow=classic;html=1;rounded=0;entryX=0;entryY=0.913;entryDx=0;entryDy=0;exitX=0.5;exitY=0;exitDx=0;exitDy=0;entryPerimeter=0;" parent="1" source="XMyTi6aym01U6IMyNRND-40" target="XMyTi6aym01U6IMyNRND-41" edge="1">
          <mxGeometry width="50" height="50" relative="1" as="geometry">
            <mxPoint x="790" y="940" as="sourcePoint" />
            <mxPoint x="840" y="890" as="targetPoint" />
          </mxGeometry>
        </mxCell>
        <mxCell id="XMyTi6aym01U6IMyNRND-46" value="&lt;font style=&quot;font-size: 14px;&quot;&gt;13.deepep调用&lt;/font&gt;" style="edgeLabel;html=1;align=center;verticalAlign=middle;resizable=0;points=[];" parent="XMyTi6aym01U6IMyNRND-43" vertex="1" connectable="0">
          <mxGeometry x="-0.1775" y="3" relative="1" as="geometry">
            <mxPoint x="1" as="offset" />
          </mxGeometry>
        </mxCell>
        <mxCell id="XMyTi6aym01U6IMyNRND-44" value="" style="endArrow=classic;html=1;rounded=0;exitX=1;exitY=0.5;exitDx=0;exitDy=0;entryX=0;entryY=0.5;entryDx=0;entryDy=0;" parent="1" source="XMyTi6aym01U6IMyNRND-36" target="XMyTi6aym01U6IMyNRND-40" edge="1">
          <mxGeometry width="50" height="50" relative="1" as="geometry">
            <mxPoint x="700" y="900" as="sourcePoint" />
            <mxPoint x="750" y="850" as="targetPoint" />
          </mxGeometry>
        </mxCell>
        <mxCell id="XMyTi6aym01U6IMyNRND-45" value="&lt;font style=&quot;font-size: 14px;&quot;&gt;12.deepep调用&lt;/font&gt;" style="edgeLabel;html=1;align=center;verticalAlign=middle;resizable=0;points=[];" parent="XMyTi6aym01U6IMyNRND-44" vertex="1" connectable="0">
          <mxGeometry x="-0.2286" y="-2" relative="1" as="geometry">
            <mxPoint x="11" y="-2" as="offset" />
          </mxGeometry>
        </mxCell>
        <mxCell id="XMyTi6aym01U6IMyNRND-48" value="" style="endArrow=classic;html=1;rounded=0;entryX=0.25;entryY=1;entryDx=0;entryDy=0;exitX=0.75;exitY=0;exitDx=0;exitDy=0;" parent="1" source="XMyTi6aym01U6IMyNRND-14" target="XMyTi6aym01U6IMyNRND-4" edge="1">
          <mxGeometry width="50" height="50" relative="1" as="geometry">
            <mxPoint x="340" y="830" as="sourcePoint" />
            <mxPoint x="390" y="780" as="targetPoint" />
          </mxGeometry>
        </mxCell>
        <mxCell id="XMyTi6aym01U6IMyNRND-49" value="&lt;font style=&quot;font-size: 14px;&quot;&gt;16.得到专家调用信息&lt;/font&gt;" style="edgeLabel;html=1;align=center;verticalAlign=middle;resizable=0;points=[];" parent="XMyTi6aym01U6IMyNRND-48" vertex="1" connectable="0">
          <mxGeometry x="-0.5925" relative="1" as="geometry">
            <mxPoint y="-1" as="offset" />
          </mxGeometry>
        </mxCell>
        <mxCell id="XMyTi6aym01U6IMyNRND-50" value="" style="endArrow=classic;html=1;rounded=0;entryX=0.25;entryY=1;entryDx=0;entryDy=0;exitX=1;exitY=0.5;exitDx=0;exitDy=0;" parent="1" source="XMyTi6aym01U6IMyNRND-14" target="XMyTi6aym01U6IMyNRND-3" edge="1">
          <mxGeometry width="50" height="50" relative="1" as="geometry">
            <mxPoint x="340" y="730" as="sourcePoint" />
            <mxPoint x="390" y="680" as="targetPoint" />
          </mxGeometry>
        </mxCell>
        <mxCell id="XMyTi6aym01U6IMyNRND-51" value="&lt;font style=&quot;font-size: 14px;&quot;&gt;17.重新初始化&lt;/font&gt;&lt;div&gt;&lt;font size=&quot;3&quot;&gt;位置信息&lt;/font&gt;&lt;/div&gt;" style="edgeLabel;html=1;align=center;verticalAlign=middle;resizable=0;points=[];" parent="XMyTi6aym01U6IMyNRND-50" vertex="1" connectable="0">
          <mxGeometry x="0.093" relative="1" as="geometry">
            <mxPoint x="11" y="-5" as="offset" />
          </mxGeometry>
        </mxCell>
        <mxCell id="XMyTi6aym01U6IMyNRND-52" value="&lt;font style=&quot;font-size: 18px;&quot;&gt;eplb方法&lt;/font&gt;" style="rounded=1;whiteSpace=wrap;html=1;" parent="1" vertex="1">
          <mxGeometry x="850" y="380" width="150" height="80" as="geometry" />
        </mxCell>
        <mxCell id="XMyTi6aym01U6IMyNRND-53" value="" style="endArrow=classic;html=1;rounded=0;exitX=1;exitY=0.5;exitDx=0;exitDy=0;entryX=0;entryY=0.5;entryDx=0;entryDy=0;" parent="1" source="XMyTi6aym01U6IMyNRND-3" target="XMyTi6aym01U6IMyNRND-52" edge="1">
          <mxGeometry width="50" height="50" relative="1" as="geometry">
            <mxPoint x="750" y="730" as="sourcePoint" />
            <mxPoint x="800" y="680" as="targetPoint" />
          </mxGeometry>
        </mxCell>
        <mxCell id="XMyTi6aym01U6IMyNRND-54" value="&lt;font style=&quot;font-size: 14px;&quot;&gt;18.重新初始化方法&lt;/font&gt;" style="edgeLabel;html=1;align=center;verticalAlign=middle;resizable=0;points=[];" parent="XMyTi6aym01U6IMyNRND-53" vertex="1" connectable="0">
          <mxGeometry x="0.1" y="1" relative="1" as="geometry">
            <mxPoint x="23" y="-3" as="offset" />
          </mxGeometry>
        </mxCell>
        <mxCell id="XMyTi6aym01U6IMyNRND-55" value="" style="endArrow=classic;html=1;rounded=0;entryX=1;entryY=0.75;entryDx=0;entryDy=0;exitX=0.5;exitY=0;exitDx=0;exitDy=0;" parent="1" source="XMyTi6aym01U6IMyNRND-14" target="XMyTi6aym01U6IMyNRND-1" edge="1">
          <mxGeometry width="50" height="50" relative="1" as="geometry">
            <mxPoint x="460" y="730" as="sourcePoint" />
            <mxPoint x="510" y="680" as="targetPoint" />
          </mxGeometry>
        </mxCell>
        <mxCell id="XMyTi6aym01U6IMyNRND-56" value="&lt;font style=&quot;font-size: 14px;&quot;&gt;19.专家位置参数更新&lt;/font&gt;" style="edgeLabel;html=1;align=center;verticalAlign=middle;resizable=0;points=[];" parent="XMyTi6aym01U6IMyNRND-55" vertex="1" connectable="0">
          <mxGeometry x="0.1059" y="2" relative="1" as="geometry">
            <mxPoint as="offset" />
          </mxGeometry>
        </mxCell>
        <mxCell id="XMyTi6aym01U6IMyNRND-58" value="&lt;font style=&quot;font-size: 18px;&quot;&gt;expert_location_update&lt;/font&gt;" style="rounded=1;whiteSpace=wrap;html=1;" parent="1" vertex="1">
          <mxGeometry x="270" y="310" width="190" height="80" as="geometry" />
        </mxCell>
        <mxCell id="XMyTi6aym01U6IMyNRND-62" value="" style="endArrow=classic;html=1;rounded=0;exitX=0.75;exitY=0;exitDx=0;exitDy=0;entryX=0.5;entryY=1;entryDx=0;entryDy=0;" parent="1" source="XMyTi6aym01U6IMyNRND-1" target="XMyTi6aym01U6IMyNRND-58" edge="1">
          <mxGeometry width="50" height="50" relative="1" as="geometry">
            <mxPoint x="120" y="430" as="sourcePoint" />
            <mxPoint x="170" y="380" as="targetPoint" />
          </mxGeometry>
        </mxCell>
        <mxCell id="XMyTi6aym01U6IMyNRND-63" value="&lt;font style=&quot;font-size: 14px;&quot;&gt;20.实现专家位置更新&lt;/font&gt;&lt;div&gt;&lt;font size=&quot;3&quot;&gt;参数更新&lt;/font&gt;&lt;/div&gt;" style="edgeLabel;html=1;align=center;verticalAlign=middle;resizable=0;points=[];" parent="XMyTi6aym01U6IMyNRND-62" vertex="1" connectable="0">
          <mxGeometry x="0.1419" y="2" relative="1" as="geometry">
            <mxPoint x="12" y="-8" as="offset" />
          </mxGeometry>
        </mxCell>
        <mxCell id="XMyTi6aym01U6IMyNRND-64" value="" style="endArrow=classic;html=1;rounded=0;exitX=0.75;exitY=1;exitDx=0;exitDy=0;entryX=0;entryY=0.5;entryDx=0;entryDy=0;" parent="1" source="XMyTi6aym01U6IMyNRND-58" target="XMyTi6aym01U6IMyNRND-3" edge="1">
          <mxGeometry width="50" height="50" relative="1" as="geometry">
            <mxPoint x="460" y="540" as="sourcePoint" />
            <mxPoint x="510" y="490" as="targetPoint" />
          </mxGeometry>
        </mxCell>
        <mxCell id="XMyTi6aym01U6IMyNRND-65" value="&lt;font style=&quot;font-size: 14px;&quot;&gt;21.专家映射更新&lt;/font&gt;" style="edgeLabel;html=1;align=center;verticalAlign=middle;resizable=0;points=[];" parent="XMyTi6aym01U6IMyNRND-64" vertex="1" connectable="0">
          <mxGeometry x="-0.7461" y="-1" relative="1" as="geometry">
            <mxPoint x="28" y="49" as="offset" />
          </mxGeometry>
        </mxCell>
        <mxCell id="XMyTi6aym01U6IMyNRND-71" value="&lt;font style=&quot;font-size: 24px;&quot;&gt;1.模型推理执行器&amp;nbsp;&lt;/font&gt;" style="text;html=1;align=center;verticalAlign=middle;resizable=0;points=[];autosize=1;strokeColor=none;fillColor=none;" parent="1" vertex="1">
          <mxGeometry x="3.5" y="295" width="220" height="40" as="geometry" />
        </mxCell>
        <mxCell id="XMyTi6aym01U6IMyNRND-75" value="&lt;font style=&quot;font-size: 24px;&quot;&gt;4. deepseek&lt;/font&gt;&lt;div&gt;&lt;font style=&quot;font-size: 24px;&quot;&gt;开源三方库&lt;/font&gt;&lt;/div&gt;" style="text;html=1;align=center;verticalAlign=middle;resizable=0;points=[];autosize=1;strokeColor=none;fillColor=none;" parent="1" vertex="1">
          <mxGeometry x="827" y="290" width="150" height="70" as="geometry" />
        </mxCell>
        <mxCell id="XMyTi6aym01U6IMyNRND-76" value="&lt;font style=&quot;font-size: 24px;&quot;&gt;2. deepseek moe&lt;/font&gt;&lt;div&gt;&lt;font style=&quot;font-size: 24px;&quot;&gt;执行过程&lt;/font&gt;&lt;/div&gt;" style="text;html=1;align=center;verticalAlign=middle;resizable=0;points=[];autosize=1;strokeColor=none;fillColor=none;" parent="1" vertex="1">
          <mxGeometry x="20" y="970" width="210" height="70" as="geometry" />
        </mxCell>
        <mxCell id="XMyTi6aym01U6IMyNRND-77" value="&lt;font style=&quot;font-size: 24px;&quot;&gt;3. eplb统计调度模块&lt;/font&gt;" style="text;html=1;align=center;verticalAlign=middle;resizable=0;points=[];autosize=1;strokeColor=none;fillColor=none;" parent="1" vertex="1">
          <mxGeometry x="583" y="300" width="240" height="40" as="geometry" />
        </mxCell>
        <mxCell id="xqtmnveGvLAbW2C1M5eQ-1" value="" style="endArrow=classic;html=1;rounded=0;exitX=1;exitY=0.5;exitDx=0;exitDy=0;entryX=0;entryY=0.5;entryDx=0;entryDy=0;" edge="1" parent="1" source="XMyTi6aym01U6IMyNRND-1" target="XMyTi6aym01U6IMyNRND-3">
          <mxGeometry width="50" height="50" relative="1" as="geometry">
            <mxPoint x="380" y="730" as="sourcePoint" />
            <mxPoint x="430" y="680" as="targetPoint" />
          </mxGeometry>
        </mxCell>
        <mxCell id="xqtmnveGvLAbW2C1M5eQ-2" value="&lt;font style=&quot;font-size: 14px;&quot;&gt;1.初始专家位置信息&lt;/font&gt;" style="edgeLabel;html=1;align=center;verticalAlign=middle;resizable=0;points=[];" vertex="1" connectable="0" parent="xqtmnveGvLAbW2C1M5eQ-1">
          <mxGeometry x="-0.2321" y="1" relative="1" as="geometry">
            <mxPoint as="offset" />
          </mxGeometry>
        </mxCell>
      </root>
    </mxGraphModel>
  </diagram>
</mxfile>
